<svg xmlns="http://www.w3.org/2000/svg" width="134" height="29"  fill="#fff" xmlns:v="https://vecta.io/nano"><path d="M54.869 28.489c-.131 0-.262-.008-.782-.008l-.439.008c-.016 0-.024-.004-.024-.016 0-.14.016-.14.246-.14.081 0 .099-.098.127-.23l.466-2.139c0-.076-.077-.095-.169-.095-.189 0-.201-.032-.201-.042 0-.028.008-.112.05-.112l.446.016.693-.016c.786 0 1.409.354 1.409 1.222.003.653-.44 1.553-1.823 1.553zm-.103-.156c1.094 0 1.336-1.028 1.336-1.53a.85.85 0 0 0-.224-.694.83.83 0 0 0-.677-.257c-.151 0-.176.078-.209.218l-.466 2.134c0 .129.139.129.24.129h0zm4.183-.872c-.029-.002-.057.011-.074.034l-.413.528c-.05.045-.077.11-.074.178 0 .132.189.132.266.132.054 0 .099.004.099.038 0 .058-.012.116-.054.116-.05 0-.147-.012-.54-.012l-.377.012c-.028 0-.034-.012-.034-.042s.012-.092.047-.098a.33.33 0 0 0 .25-.112c.189-.182.966-1.242 1.703-2.034.335-.36.578-.554.667-.554.023-.001.046.009.061.026a.08.08 0 0 1 .02.064c0 .212-.254 2.177-.254 2.447 0 .136.085.148.216.148.094 0 .103.016.103.048 0 .048-.008.108-.047.108-.111 0-.25-.012-.544-.012l-.631.012c-.016 0-.024 0-.024-.03 0-.112.038-.124.155-.124.054 0 .196-.004.216-.112a4.5 4.5 0 0 0 .094-.734c0-.026-.047-.026-.074-.026h-.76 0zm.755-.156c.054 0 .111 0 .115-.048l.123-1.016h-.012a9.28 9.28 0 0 0-.889 1.046c0 .016.008.02.02.02h.643v-.002zm4.59 1.008c.204 0 .266-.198.512-.528.018-.032.054-.049.089-.042.038 0 .061.012.061.058 0 .028-.139.59-.161.656-.007.017-.022.028-.04.03-.409 0-.931-.012-1.028-.012l-1.213.012c-.012 0-.03 0-.03-.012 0-.104.024-.143.184-.143.044.008.09-.002.127-.029s.06-.068.066-.113l.536-2.192c0-.092-.111-.128-.236-.128-.061 0-.123-.012-.123-.054 0-.062.03-.1.058-.1l.685.016.548-.016c.024 0 .03 0 .03.024 0 .074-.024.132-.103.132-.216 0-.283.008-.381.408l-.454 1.936c0 .095.05.1.196.1l.678-.003zm4.42 0c.204 0 .266-.198.512-.528.018-.032.054-.049.089-.042.038 0 .061.012.061.058a10.71 10.71 0 0 1-.163.656c-.006.016-.021.028-.038.03-.409 0-.931-.012-1.028-.012l-1.213.012c-.012 0-.032 0-.032-.012 0-.104.024-.143.184-.143.044.008.09-.002.127-.029s.06-.068.066-.113l.536-2.192c0-.092-.111-.128-.236-.128-.061 0-.123-.012-.123-.054 0-.062.032-.1.058-.1l.685.016.548-.016c.024 0 .032 0 .032.024 0 .074-.024.132-.105.132-.214 0-.283.008-.381.408l-.454 1.936c0 .095.05.1.196.1l.679-.003zm3.318-.852c-.029-.002-.057.011-.074.034l-.413.528c-.05.045-.077.11-.074.178 0 .132.189.132.266.132.054 0 .099.004.099.038 0 .058-.012.116-.054.116-.05 0-.147-.012-.54-.012l-.377.012c-.028 0-.036-.012-.036-.042s.012-.092.047-.098a.33.33 0 0 0 .25-.112c.189-.182.966-1.242 1.703-2.034.335-.36.578-.554.667-.554.023-.001.046.009.061.026a.08.08 0 0 1 .02.064c0 .212-.254 2.177-.254 2.447 0 .136.085.148.216.148.094 0 .103.016.103.048 0 .048-.008.108-.047.108-.111 0-.25-.012-.544-.012l-.631.012c-.016 0-.024 0-.024-.03 0-.112.038-.124.155-.124.054 0 .196-.004.214-.112a4.61 4.61 0 0 0 .097-.734c0-.026-.047-.026-.074-.026h-.762.003zm.755-.156c.054 0 .111 0 .115-.048l.123-1.016h-.012a9.28 9.28 0 0 0-.889 1.046c0 .016.008.02.02.02h.643v-.002zm3.275-.8a.88.88 0 0 1 .305-.622.87.87 0 0 1 .657-.208 1.2 1.2 0 0 1 .446.104.78.78 0 0 0 .212.07c.034.003.068-.003.099-.018s.05-.054.084-.058.034.016.034.066c0 .082-.054.52-.054.644 0 .028-.032.048-.058.048-.012 0-.066-.012-.085-.09-.081-.314-.27-.61-.601-.61-.137-.016-.274.025-.379.114s-.17.218-.178.356c0 .5 1.07.702 1.07 1.4 0 .428-.347.826-1.044.826-.451 0-.601-.198-.75-.198-.066 0-.085.078-.147.078-.024 0-.03-.016-.03-.038s.024-.132.05-.59c.004-.095.02-.17.074-.17s.066.016.077.062c.115.418.25.702.766.702a.51.51 0 0 0 .487-.513c.006-.577-1.035-.677-1.035-1.353zM4.173 14.821c.018-.048.036-.064.069-.064l.589.024.637-.024c.058 0 .064.048.064.1s-.024.076-.069.076c-.526 0-.589.042-.589.312l.123 3.266a.29.29 0 0 0 .101.209c.061.052.141.077.221.067.327 0 .334.036.334.076 0 .088-.03.1-.064.1-.054 0-.117-.012-.929-.012l-.841.012c-.064 0-.064-.04-.064-.095 0-.042.012-.082.28-.082.385 0 .391-.095.391-.33l-.135-3.354h-.012L2.93 18.415c-.222.542-.222.606-.298.606s-.087-.054-.21-.46c-.129-.424-1.08-3.026-1.104-3.026a24.49 24.49 0 0 0-.484 2.971c0 .182.099.276.292.276.147 0 .316.012.316.048 0 .112 0 .13-.064.13-.047 0-.105-.012-.708-.012l-.607.012c-.047 0-.064-.006-.064-.1 0-.058.03-.076.31-.076.204 0 .246-.076.31-.412l.478-2.548a2.65 2.65 0 0 0 .075-.554.6.6 0 0 0-.153-.294 1.95 1.95 0 0 0-.502-.048c-.069 0-.069-.048-.069-.088s.012-.088.064-.088l.677.024c.153 0 .397-.024.472-.024.064 0 .081.064.142.276a62.68 62.68 0 0 0 1.073 3.043l1.299-3.25zm4.273 2.612c-.169 0-.193 0-.24.124a4.48 4.48 0 0 0-.321 1.018c0 .076 0 .212.304.212.351 0 .373.024.373.082 0 .07-.012.095-.069.095-.047 0-.123-.012-.818-.012l-.461.012c-.03 0-.042-.03-.042-.1 0-.048.058-.076.216-.076.111 0 .222-.07.298-.3l1.374-3.735c.018-.054.042-.054.111-.054.051 0 .069 0 .099.07l1.425 3.735a.41.41 0 0 0 .444.282c.051 0 .175.018.175.064s-.012.112-.064.112-.105-.012-.812-.012l-.869.012c-.024 0-.03-.048-.03-.106s.129-.07.246-.07c.236 0 .31-.03.31-.13a10.92 10.92 0 0 0-.444-1.224H8.446h0zm1.127-.194l-.619-1.724h-.012a15.49 15.49 0 0 0-.595 1.66c0 .066.036.066.222.066h1.004v-.002zm3.281-2.306c-.051 0-.051-.036-.051-.095 0-.07.018-.082.064-.082l.553.024.519-.024c.018 0 .03.018.047.036l2.914 3.241.058-2.165c0-.9-.222-.936-.73-.936-.064 0-.075-.036-.075-.082 0-.058.018-.095.064-.095l.849.024.766-.024c.036 0 .047.042.047.076 0 .082-.024.1-.054.1-.472 0-.571.06-.649.488-.036.206-.105 2.971-.105 3.531 0 .076-.03.082-.087.082s-.544-.624-3.241-3.548l-.018 1.518.024 1.494c0 .194.135.288.456.288.298 0 .298.03.298.088 0 .072-.012.088-.058.088s-.081-.012-.802-.012l-.755.012c-.058 0-.058-.04-.058-.112 0-.052.193-.064.262-.064.142 0 .373-.03.397-.26l.069-2.929a1.33 1.33 0 0 0-.012-.254c-.042-.106-.355-.412-.478-.412h-.214l.001.004zm9.453 3.136c0-.442-.236-.636-1.052-1.07-.484-.258-.887-.482-.887-1.1a1.17 1.17 0 0 1 .37-.886c.244-.228.573-.34.904-.307.265.015.528.051.788.106.064 0 .111-.106.157-.106.036 0 .051.03.051.076a7.37 7.37 0 0 0 .087.96c-.002.032-.026.057-.058.06-.064 0-.087 0-.099-.036-.163-.458-.403-.906-.959-.906-.202-.009-.399.066-.544.207a.75.75 0 0 0-.226.54c.006.304.183.578.456.706.671.428 1.566.618 1.566 1.5 0 .866-.619 1.224-1.413 1.224a7.1 7.1 0 0 1-1.028-.082c-.042-.006-.047-.012-.054-.07l-.081-.894c0-.048.047-.058.117-.058.047 0 .051.018.064.076a1.05 1.05 0 0 0 1.028.876.75.75 0 0 0 .593-.22c.156-.157.236-.375.219-.597zm3.782-1.912l-.012-.83c-.006-.348-.105-.394-.613-.394-.064 0-.064-.048-.064-.1 0-.036.012-.076.054-.076l.923.024.929-.024c.047 0 .051.042.051.076 0 .054 0 .1-.064.1-.508 0-.607.048-.613.394l-.012.83v1.442l.018.93c.006.158.042.26.502.26.165 0 .165.036.165.1 0 .052 0 .076-.047.076s-.064-.012-.929-.012l-.923.012c-.042 0-.047-.024-.047-.076 0-.064 0-.1.163-.1.461 0 .496-.1.502-.26l.018-.93v-1.442h0zm5.67 2.877a2.05 2.05 0 0 1-1.512-.561 2.08 2.08 0 0 1-.649-1.486 2.19 2.19 0 0 1 .597-1.606 2.16 2.16 0 0 1 1.564-.676c1.239 0 2.167.748 2.167 2.253a2.09 2.09 0 0 1-.643 1.505 2.06 2.06 0 0 1-1.524.571zm0-4.179c-1.361 0-1.466 1.536-1.466 2.018 0 .812.391 2.006 1.466 2.006 1.377 0 1.473-1.312 1.473-2.011 0-.84-.393-2.011-1.473-2.011h0zm4.15.078c-.051 0-.051-.036-.051-.095 0-.07.018-.082.064-.082l.556.024.519-.024c.018 0 .03.018.047.036l2.914 3.241.058-2.165c0-.9-.222-.936-.73-.936-.064 0-.075-.036-.075-.082 0-.058.018-.095.064-.095l.849.024.764-.024c.034 0 .047.042.047.076 0 .082-.024.1-.051.1-.472 0-.571.06-.649.488-.036.206-.105 2.971-.105 3.531 0 .076-.03.082-.087.082s-.544-.624-3.241-3.548l-.018 1.518.024 1.494c0 .194.135.288.454.288.298 0 .298.03.298.088 0 .072-.012.088-.058.088s-.081-.012-.802-.012l-.755.012c-.059 0-.059-.04-.059-.112 0-.052.193-.064.264-.064.142 0 .373-.03.397-.26l.069-2.929a1.33 1.33 0 0 0-.012-.254c-.042-.106-.355-.412-.478-.412h-.212l-.001.004zm12.558 4.101a2.05 2.05 0 0 1-1.512-.561 2.08 2.08 0 0 1-.649-1.486 2.19 2.19 0 0 1 .597-1.606 2.16 2.16 0 0 1 1.564-.676c1.239 0 2.167.748 2.167 2.253a2.09 2.09 0 0 1-.643 1.505 2.06 2.06 0 0 1-1.524.571zm0-4.179c-1.361 0-1.466 1.536-1.466 2.018 0 .812.391 2.006 1.466 2.006 1.377 0 1.473-1.312 1.473-2.011 0-.84-.391-2.011-1.473-2.011h0zm4.035.078c-.054 0-.054-.036-.054-.095 0-.07.018-.082.064-.082l.556.024.519-.024c.018 0 .03.018.047.036l2.914 3.241.058-2.165c0-.9-.222-.936-.73-.936-.064 0-.075-.036-.075-.082 0-.058.018-.095.064-.095l.849.024.764-.024c.033 0 .047.042.047.076 0 .082-.024.1-.054.1-.472 0-.571.06-.647.488-.036.206-.105 2.971-.105 3.531 0 .076-.03.082-.087.082s-.544-.624-3.241-3.548l-.018 1.518.024 1.494c0 .194.135.288.454.288.298 0 .298.03.298.088 0 .072-.012.088-.059.088s-.081-.012-.802-.012l-.755.012c-.059 0-.059-.04-.059-.112 0-.052.193-.064.262-.064.142 0 .373-.03.397-.26l.069-2.929a1.33 1.33 0 0 0-.012-.254c-.042-.106-.355-.412-.478-.412h-.206v.004zm14.094-.154c.216 0 .27-.148.363-.148.036 0 .042.024.099.224l.256.8c0 .016-.051.048-.087.048-.033.006-.066-.011-.081-.042-.28-.512-.561-.706-.986-.706h-.712c-.099 0-.142.064-.142.37v2.272l.018.93c.006.158.042.26.502.26.163 0 .163.036.163.1 0 .052 0 .076-.047.076s-.064-.012-.929-.012l-.923.012c-.042 0-.047-.024-.047-.076 0-.064 0-.1.163-.1.462 0 .496-.1.502-.26l.018-.93v-2.271c0-.37-.058-.37-.256-.37h-.637a1.24 1.24 0 0 0-.953.706c-.024.036-.047.036-.099.036s-.081-.024-.081-.042.03-.04.28-.788c.024-.064.036-.238.087-.238.123 0 .147.148.385.148l3.144.001z"/><path d="M70.418 17.221c0 .788.327 1.474 1.308 1.474.683 0 1.274-.38 1.274-1.784v-1.164c0-.818-.171-.818-.772-.818-.047 0-.047-.036-.047-.088 0-.07.018-.088.047-.088l.859.024.76-.024c.058 0 .081.012.081.1 0 .024-.006.076-.051.076-.561 0-.677 0-.677.694v1.394c0 1.59-1.004 2.014-1.683 2.014-1.308 0-1.677-.884-1.677-1.53v-1.348l-.012-.83c-.006-.348-.105-.394-.613-.394-.064 0-.064-.048-.064-.1 0-.036.012-.076.051-.076l.923.024.929-.024c.047 0 .054.042.054.076 0 .054 0 .1-.066.1-.508 0-.607.048-.613.394l-.012.83v1.068h0zm6.272-1.064l-.012-.83c-.006-.348-.105-.394-.524-.394-.066 0-.066-.048-.066-.1 0-.036.012-.076.054-.076l.836.024.854-.024c.678 0 1.506.23 1.506 1.076 0 .566-.298.842-.941 1.1-.028.012-.066.024-.066.048a6.09 6.09 0 0 0 .836 1.236c.421.512.474.582.824.588.042 0 .042.036.042.07 0 .064-.018.088-.069.088a4.71 4.71 0 0 0-.478-.012 4 4 0 0 0-.415.012c-.054 0-.071 0-.105-.048-.484-.636-.869-1.382-1.081-1.594a.66.66 0 0 0-.613-.238v.512l.018.93c.006.158.042.26.502.26.163 0 .163.036.163.1 0 .052 0 .076-.047.076-.04 0-.064-.012-.929-.012l-.836.012c-.042 0-.047-.024-.047-.076 0-.064 0-.1.165-.1.373 0 .409-.1.415-.26l.018-.93-.001-1.438zm1.056.752c.266.023.529-.076.715-.27a.9.9 0 0 0 .244-.729.93.93 0 0 0-.276-.721.91.91 0 0 0-.723-.257c-.357 0-.439.03-.439.418v1.56l.478-.001zm7.678-2.13c.216 0 .268-.148.363-.148.036 0 .042.024.099.224l.256.8c0 .016-.051.048-.087.048-.033.005-.066-.012-.081-.042-.28-.512-.56-.706-.986-.706h-.712c-.099 0-.142.064-.142.37v2.272l.018.93c.006.158.04.26.502.26.163 0 .163.036.163.1 0 .052 0 .076-.047.076s-.064-.012-.929-.012l-.923.012c-.042 0-.047-.024-.047-.076 0-.064 0-.1.163-.1.461 0 .496-.1.502-.26l.018-.93v-2.271c0-.37-.058-.37-.256-.37h-.637a1.24 1.24 0 0 0-.953.706c-.024.036-.047.036-.099.036s-.081-.024-.081-.042.03-.04.28-.788c.024-.064.034-.238.087-.238.123 0 .147.148.385.148l3.144.001zm3.362 1.378l-.012-.83c-.006-.348-.105-.394-.584-.394-.066 0-.066-.048-.066-.1 0-.036.012-.076.051-.076l.893.024.929-.024c.04 0 .051.042.051.076 0 .054 0 .1-.064.1-.508 0-.607.048-.613.394l-.012.83v1.442l.018.93c.006.212.169.242.613.242.899 0 1.326-.03 1.6-.866.042-.124.03-.164.081-.164.111 0 .123.018.123.07 0 .03-.123.512-.222 1.106-.001.014-.008.027-.019.036a.05.05 0 0 1-.039.011c-.066 0-.135-.012-2.417-.012l-.923.012c-.04 0-.047-.024-.047-.076 0-.064 0-.1.135-.1.461 0 .496-.1.502-.26l.018-.93v-1.44l.002-.002zm5.959 2.793l-.923.012c-.042 0-.047-.024-.047-.076 0-.064 0-.1.123-.1.462 0 .496-.1.502-.26l.018-.93v-1.442l-.012-.83c-.006-.348-.105-.394-.571-.394-.066 0-.066-.048-.066-.1 0-.036.012-.076.054-.076l.923.024 1.963-.024c.135 0 .21 0 .222.048l.256.83c0 .036-.036.042-.087.042-.094 0-.142-.17-.653-.606-.114-.092-.257-.14-.403-.136l-.875.036c-.135.006-.168.124-.168.454v1.354h.391c.631 0 .677-.258.688-.324.069-.436.087-.436.129-.436.069 0 .111.006.111.042v.884l.03.7c0 .042-.042.048-.075.048-.069 0-.081-.024-.087-.064-.087-.636-.193-.67-.76-.67h-.425v1.518c0 .23.069.306.286.306h1.389c.222 0 .56-.566.683-.724.018-.023.046-.037.075-.036.058 0 .094.006.094.042a4.8 4.8 0 0 1-.367.894h-2.415l-.002-.004zm12.257-1.094c.036 0 .064.006.064.07s-.081.654-.081.776c.003.051-.032.097-.082.106a5.01 5.01 0 0 1-1.604.224 2.05 2.05 0 0 1-1.512-.561 2.08 2.08 0 0 1-.649-1.486 2.19 2.19 0 0 1 .597-1.606 2.16 2.16 0 0 1 1.564-.676 3.42 3.42 0 0 1 1.321.224c.105 0 .147-.1.228-.1.012 0 .04.012.04.07a7.77 7.77 0 0 0 .111.942c0 .054-.069.076-.111.076-.018 0-.047 0-.064-.048-.158-.625-.734-1.05-1.373-1.012-.724 0-1.617.694-1.617 2.106-.039.488.124.971.45 1.334a1.76 1.76 0 0 0 1.272.584c.605-.023 1.138-.407 1.356-.976.008-.028.031-.046.091-.046zm2.965-1.699l-.012-.83c-.006-.348-.105-.394-.524-.394-.066 0-.066-.048-.066-.1 0-.036.012-.076.054-.076l.836.024.849-.024c.678 0 1.506.23 1.506 1.076 0 .566-.298.842-.941 1.1-.03.012-.064.024-.064.048a6.09 6.09 0 0 0 .836 1.236c.421.512.474.582.824.588.042 0 .042.036.042.07 0 .064-.018.088-.071.088a4.71 4.71 0 0 0-.478-.012 4 4 0 0 0-.415.012c-.051 0-.069 0-.105-.048-.484-.636-.869-1.382-1.081-1.594a.66.66 0 0 0-.613-.238v.512l.018.93c.006.158.042.26.502.26.163 0 .163.036.163.1 0 .052 0 .076-.047.076-.04 0-.064-.012-.929-.012l-.836.012c-.042 0-.047-.024-.047-.076 0-.064 0-.1.165-.1.375 0 .409-.1.415-.26l.018-.93v-1.442l.003.004zm1.056.752c.266.023.529-.076.715-.27a.9.9 0 0 0 .244-.729.93.93 0 0 0-.276-.721.91.91 0 0 0-.723-.257c-.357 0-.439.03-.439.418v1.56l.478-.001zm4.897 2.041l-.923.012c-.042 0-.047-.024-.047-.076 0-.064 0-.1.123-.1.462 0 .496-.1.502-.26l.018-.93v-1.442l-.012-.83c-.006-.348-.105-.394-.571-.394-.066 0-.066-.048-.066-.1 0-.036.012-.076.054-.076l.923.024 1.963-.024c.135 0 .21 0 .222.048l.256.83c0 .036-.034.042-.087.042-.094 0-.139-.17-.653-.606-.114-.092-.257-.14-.403-.136l-.877.036c-.135.006-.171.124-.171.454v1.354h.391c.631 0 .677-.258.689-.324.069-.436.087-.436.129-.436.069 0 .111.006.111.042v.884l.03.7c0 .042-.042.048-.075.048-.069 0-.081-.024-.087-.064-.087-.636-.193-.67-.76-.67h-.425v1.518c0 .23.071.306.286.306h1.386c.222 0 .561-.566.683-.724.018-.023.046-.037.075-.036.058 0 .094.006.094.042a4.76 4.76 0 0 1-.367.894h-2.409l-.002-.004zm6.101 0l-.923.012c-.042 0-.047-.024-.047-.076 0-.064 0-.1.123-.1.461 0 .496-.1.502-.26l.018-.93v-1.442l-.012-.83c-.006-.348-.105-.394-.571-.394-.064 0-.064-.048-.064-.1 0-.036.012-.076.051-.076l.923.024 1.963-.024c.135 0 .21 0 .22.048l.258.83c0 .036-.036.042-.087.042-.094 0-.142-.17-.655-.606-.114-.092-.257-.14-.403-.136l-.875.036c-.133.006-.168.124-.168.454v1.354h.391c.629 0 .677-.258.688-.324.071-.436.087-.436.129-.436.071 0 .111.006.111.042v.884l.03.7c0 .042-.04.048-.075.048-.069 0-.081-.024-.087-.064-.087-.636-.193-.67-.758-.67h-.425v1.518c0 .23.069.306.286.306h1.389c.222 0 .56-.566.683-.724.018-.023.046-.037.075-.036.058 0 .094.006.094.042a4.76 4.76 0 0 1-.367.894h-2.415l-.002-.004zm8.361-.494c.162.221.423.345.695.33.176 0 .181.042.181.1s-.012.076-.058.076-.094-.012-.982-.012l-.941.012c-.047 0-.047-.048-.047-.118 0-.03.058-.058.31-.058.129 0 .168-.066.168-.124a.21.21 0 0 0-.075-.164l-1.308-1.412c-.089-.061-.197-.086-.304-.07v.582l.018.93c.006.158.042.26.502.26.163 0 .163.036.163.1 0 .052 0 .076-.047.076s-.066-.012-.929-.012l-.923.012c-.042 0-.047-.024-.047-.076 0-.064 0-.1.163-.1.461 0 .496-.1.502-.26l.018-.93v-1.442l-.01-.83c-.006-.348-.105-.394-.613-.394-.064 0-.064-.048-.064-.1 0-.036.012-.076.051-.076l.923.024.929-.024c.04 0 .054.042.054.076 0 .054 0 .1-.066.1-.508 0-.607.048-.613.394l-.012.83v.713a.36.36 0 0 0 .349-.128l1.484-1.648c0-.088-.006-.158-.397-.158-.066 0-.069-.03-.069-.088 0-.024.018-.088.058-.088l.73.024.625-.024c.051 0 .058.042.058.088 0 .064-.006.088-.075.088-.292 0-.409.03-.854.475l-1.127 1.148c-.047.052-.081.082-.081.106s.054.07.129.152l1.533 1.639zM23.041 4.123a6.57 6.57 0 0 1-.875.068c-.145.006-.289-.002-.433-.022v1.315c0 1.61 0 1.688 1.032 1.766.034 0 .089.224-.022.212a12.15 12.15 0 0 0-1.375-.066c-.544-.009-1.088.013-1.629.066-.089.022-.047-.212-.012-.212.998-.1 1.042-.09 1.042-1.766v-3.36c0-1.264-.022-1.653-.655-1.653a3.2 3.2 0 0 0-.421.044c-.056.012-.121-.168-.022-.202a12.62 12.62 0 0 1 2.784-.19c1.619 0 2.951.502 2.951 1.744a2.28 2.28 0 0 1-1.552 2.024c.599 1.61 2.34 3.541 3.582 3.541.034 0 .089.212-.012.212-2.599 0-3.895-1.754-4.383-3.52zM21.809.458a8.97 8.97 0 0 0-.077 1.564v1.854c.155.012.232 0 .421 0 1.663 0 2.253-.604 2.253-1.532 0-1.521-.998-1.912-2.096-1.912l-.5.026h0zm8.692 3.463C30.501 2.067 32.22 0 34.671 0c2.362 0 3.981 1.766 3.981 3.687 0 1.866-1.731 3.933-4.191 3.933-2.352 0-3.959-1.766-3.959-3.699zm.996-.368c0 2.457 1.641 3.722 3.227 3.722 1.675 0 2.925-1.186 2.925-3.208 0-2.459-1.663-3.733-3.239-3.733-1.671 0-2.914 1.196-2.914 3.219h0zm11.653 3.32a9.42 9.42 0 0 1 .066-1.474c0-.056.201-.044.201-.01.077 1.141.699 1.89 1.851 1.89.755 0 1.474-.414 1.474-1.308 0-1.854-3.338-1.866-3.338-3.898.05-1.173 1.02-2.091 2.185-2.068a2.82 2.82 0 0 1 1.453.358c.089.044.167.47.167 1.218 0 .056-.222.048-.222.012A1.38 1.38 0 0 0 45.5.341c-.327-.03-.653.074-.903.289s-.404.522-.427.852c0 1.778 3.273 1.744 3.273 3.877.006.607-.232 1.191-.661 1.619a2.22 2.22 0 0 1-1.613.649 3.02 3.02 0 0 1-2.018-.754h0zm15.167.579c-.409 0-1.119-.056-1.941-.056l-3.072.066c-.099.012-.044-.212-.012-.212 1.119-.122 1.143-.078 1.143-1.766V2.133c0-1.7-.022-1.653-1.143-1.788-.034 0-.099-.212.012-.202l3.028.078L58.56.143a2.11 2.11 0 0 0-.077.648l.012.424c.012.056-.189.034-.201 0-.089-.492-.321-.638-1.774-.638h-1.066a12.06 12.06 0 0 0-.056 1.498v1.431h1.141c1.221 0 1.132-.09 1.197-.38.012-.034.189 0 .21.022a3.09 3.09 0 0 0-.066.692l.012.436c.022.056-.189.044-.201.01-.067-.346-.133-.48-1.153-.48h-1.141v1.632c0 1.452.176 1.585.687 1.585h.587c1.699 0 1.796-.143 1.963-.882 0-.022.21-.022.201.034l-.21 1.04c-.052.206-.119.237-.308.237zm12.75.091a.11.11 0 0 1-.098.049c-.039-.002-.073-.026-.091-.061l-1.675-4.737-2.076 4.749a.12.12 0 0 1-.201-.012l-2.141-5.387C64.254.805 64.075.425 63.2.347c-.056 0-.099-.202.012-.19a9.2 9.2 0 0 0 1.187.068 16.68 16.68 0 0 0 1.774-.068c.111-.012.044.19.012.19-.51.044-.788.112-.788.414a6.55 6.55 0 0 0 .399 1.364l1.586 3.977 1.641-3.821-.056-.134c-.544-1.308-.665-1.72-1.51-1.798-.034 0-.077-.202.012-.19.394.048.79.071 1.187.068L70.53.159c.089-.022.056.19.022.19-.688.056-.909.134-.909.47a5.01 5.01 0 0 0 .334 1.308l1.341 3.977 1.586-4.033a4.36 4.36 0 0 0 .399-1.296c0-.28-.179-.37-.72-.424-.034 0-.099-.202.012-.19a7.8 7.8 0 0 0 1.097.068c.349.011.698-.012 1.042-.068.089-.022.047.19.012.19-.699.068-.921.548-1.443 1.798L71.07 7.543zm7.449-3.622c0-1.854 1.718-3.921 4.17-3.921 2.362 0 3.981 1.766 3.981 3.687 0 1.866-1.731 3.933-4.191 3.933-2.35 0-3.959-1.766-3.959-3.699zm.998-.368c0 2.457 1.641 3.722 3.229 3.722 1.675 0 2.925-1.186 2.925-3.208 0-2.459-1.663-3.733-3.239-3.733-1.673 0-2.915 1.196-2.915 3.219zm11.663.368c0-1.854 1.718-3.921 4.17-3.921 2.362 0 3.981 1.766 3.981 3.687 0 1.866-1.731 3.933-4.191 3.933-2.35 0-3.959-1.766-3.959-3.699zm.998-.368c0 2.457 1.642 3.722 3.227 3.722 1.675 0 2.925-1.186 2.925-3.208 0-2.459-1.663-3.733-3.239-3.733-1.671 0-2.914 1.196-2.914 3.219zm13.57 3.844a17.37 17.37 0 0 0-1.796.066c-.111.012-.047-.212-.012-.212.988-.1 1.042-.09 1.042-1.766V2.134c0-1.676-.056-1.676-1.042-1.788-.034 0-.099-.202.012-.19.466.056 1.242.068 1.895.068l1.709-.048c2.651 0 4.003 1.542 4.003 3.518 0 2.034-1.663 3.743-4.148 3.743-.388.005-1.397-.041-1.663-.041zm.288-6.827a8 8 0 0 0-.089 1.554v3.765c0 1.093.167 1.208 1.774 1.208 1.598 0 2.84-1.106 2.84-3.039 0-2.346-1.286-3.543-3.338-3.543a8.31 8.31 0 0 0-1.187.056h0zm25.528 15.145c.002-.545.442-.985.982-.984s.979.443.979.988-.438.987-.979.988a.98.98 0 0 1-.696-.29.99.99 0 0 1-.287-.701h0zm1.806 0a.83.83 0 0 0-.845-.805.83.83 0 0 0-.807.843.83.83 0 0 0 .828.822c.224.001.439-.09.594-.252a.83.83 0 0 0 .229-.608h0zm-.334.55h-.161l-.314-.508h-.246v.508h-.135v-1.104h.478c.29 0 .389.11.389.292 0 .216-.151.296-.343.302l.332.51zm-.516-.618c.155 0 .383.026.383-.198 0-.172-.139-.19-.274-.19h-.314v.39l.204-.002z"/></svg>